<svg viewBox="0 0 24 16" fill="none" xmlns="http://www.w3.org/2000/svg">
<path d="M21.6145 0H2.17224C1.07094 0 0.178162 0.924315 0.178162 2.06452V13.9355C0.178162 15.0757 1.07094 16 2.17224 16H21.6145C22.7158 16 23.6086 15.0757 23.6086 13.9355V2.06452C23.6086 0.924315 22.7158 0 21.6145 0Z" fill="#171E6C"/>
<path d="M2.71135 5.66444C2.18975 5.37751 1.59447 5.14674 0.928909 4.98659L0.956827 4.86188H3.6857C4.05558 4.87489 4.35572 4.98651 4.45339 5.38071L5.04644 8.21659L5.22812 9.07073L6.88917 4.86188H8.68266L6.01668 11.0275H4.22309L2.71135 5.66444ZM10.0019 11.0341H8.30582L9.36669 4.86188H11.0627L10.0019 11.0341ZM16.1505 5.01277L15.9198 6.34559L15.7664 6.28004C15.4595 6.15525 15.0544 6.03054 14.503 6.04371C13.8333 6.04371 13.533 6.31277 13.526 6.57546C13.526 6.86441 13.8893 7.05484 14.4826 7.33725C15.4598 7.77719 15.913 8.31557 15.9063 9.01819C15.8925 10.2986 14.7339 11.1261 12.9542 11.1261C12.1933 11.1194 11.4604 10.9681 11.0626 10.7976L11.3 9.41205L11.5233 9.51066C12.0747 9.74071 12.4375 9.83898 13.1147 9.83898C13.603 9.83898 14.1266 9.64838 14.1333 9.23488C14.1333 8.96565 13.9102 8.76851 13.254 8.46646C12.612 8.17087 11.7536 7.67848 11.7675 6.79198C11.7747 5.59042 12.9542 4.75 14.6292 4.75C15.2853 4.75 15.8159 4.88789 16.1505 5.01277ZM18.4047 8.84749H19.8145C19.7448 8.53889 19.4236 7.06147 19.4236 7.06147L19.3051 6.52964C19.2213 6.75943 19.0749 7.13373 19.0819 7.12056C19.0819 7.12056 18.5444 8.4929 18.4047 8.84749ZM20.4984 4.86188L21.8667 11.034H20.2963C20.2963 11.034 20.1426 10.3248 20.0939 10.1081H17.9162C17.8533 10.2722 17.5603 11.034 17.5603 11.034H15.7806L18.2999 5.37399C18.4745 4.97342 18.7819 4.86188 19.1864 4.86188H20.4984Z" fill="white"/>
</svg>
