<svg viewBox="0 0 25 16" fill="none" xmlns="http://www.w3.org/2000/svg">
<path d="M22.8638 0H2.923C1.8217 0 0.928925 0.89543 0.928925 2V14C0.928925 15.1046 1.8217 16 2.923 16H22.8638C23.9651 16 24.8578 15.1046 24.8578 14V2C24.8578 0.89543 23.9651 0 22.8638 0Z" fill="#252525"/>
<path d="M9.90227 13C12.6555 13 14.8875 10.7614 14.8875 8C14.8875 5.23858 12.6555 3 9.90227 3C7.14903 3 4.91708 5.23858 4.91708 8C4.91708 10.7614 7.14903 13 9.90227 13Z" fill="#EB001B"/>
<path d="M15.8845 13C18.6377 13 20.8697 10.7614 20.8697 8C20.8697 5.23858 18.6377 3 15.8845 3C13.1313 3 10.8993 5.23858 10.8993 8C10.8993 10.7614 13.1313 13 15.8845 13Z" fill="#F79E1B"/>
<path fill-rule="evenodd" clip-rule="evenodd" d="M12.8934 3.99963C14.1042 4.91184 14.8875 6.36418 14.8875 8C14.8875 9.63582 14.1042 11.0882 12.8934 12.0004C11.6825 11.0882 10.8993 9.63582 10.8993 8C10.8993 6.36418 11.6825 4.91184 12.8934 3.99963Z" fill="#FF5F00"/>
</svg>
