<?xml version="1.0" ?><!DOCTYPE svg  PUBLIC '-//W3C//DTD SVG 1.1//EN'  'http://www.w3.org/Graphics/SVG/1.1/DTD/svg11.dtd'><svg enable-background="new 0 0 40 40" version="1.1" viewBox="0 0 40 40" xml:space="preserve" xmlns="http://www.w3.org/2000/svg" xmlns:xlink="http://www.w3.org/1999/xlink"><g id="E-Com"><g id="CVC_5_"/><g id="Mastercard_5_"><g id="Mastercard"><g><path clip-rule="evenodd" d="M34,9.5H6c-1.1,0-2,0.9-2,2v17c0,1.1,0.9,2,2,2h28      c1.1,0,2-0.9,2-2v-17C36,10.4,35.1,9.5,34,9.5z" fill="#34495E" fill-rule="evenodd"/></g></g><g id="Mastercard_1_"><g><circle clip-rule="evenodd" cx="16" cy="20" fill="#E74C3C" fill-rule="evenodd" r="7"/></g></g><g id="Mastercard_2_"><g><circle clip-rule="evenodd" cx="24" cy="20" fill="#F1C40F" fill-rule="evenodd" r="7"/></g></g><g id="Mastercard_3_"><g><path clip-rule="evenodd" d="M21.8,16.5h-5.6c-0.2,0.3-0.4,0.6-0.6,1h6.8      C22.2,17.1,22,16.8,21.8,16.5z M20.2,14.5h-2.3c-0.3,0.3-0.6,0.6-0.9,1h4.2C20.8,15.1,20.4,14.8,20.2,14.5z M22.8,18.5h-7.5      c-0.1,0.3-0.2,0.7-0.2,1H23C22.9,19.2,22.9,18.8,22.8,18.5z M16.2,23.5h5.6c0.2-0.3,0.4-0.6,0.6-1h-6.8      C15.8,22.9,16,23.2,16.2,23.5z M15.2,21.5h7.5c0.1-0.3,0.2-0.7,0.2-1H15C15.1,20.8,15.1,21.2,15.2,21.5z M17.8,25.5h2.3      c0.3-0.3,0.6-0.6,0.9-1h-4.2C17.2,24.9,17.6,25.2,17.8,25.5z" fill="#E74C3C" fill-rule="evenodd"/></g></g></g><g id="Visa_6_"/><g id="Discover"/><g id="Amex_3_"/><g id="Bitcoin_3_"/><g id="Google_Wallet_5_"/><g id="PayPal_3_"/><g id="Square_Payment_1_"/><g id="Shop_5_"/><g id="Postage"/><g id="Package_7_"/><g id="Discount_3_"/><g id="Earth_3_"/><g id="Barcode_3_"/><g id="Cart_Plus_6_"/><g id="Cart_Minus_6_"/><g id="Cart_4_"/><g id="Receipt_5_"/><g id="Truck_9_"/><g id="Calculator_6_"/><g id="Euro_Symbol"/><g id="Cent_Symbol"/><g id="Dollar_Symbol"/><g id="Pound_Symbol"/><g id="Bank_5_"/><g id="Wallet_3_"/><g id="Coins_6_"/><g id="Bills_6_"/><g id="Dollar_Alt"/><g id="Dollar"/></g><g id="Lockup"/></svg>